<svg id="visual" viewBox="0 0 900 600" width="900" height="600" xmlns="http://www.w3.org/2000/svg" xmlns:xlink="http://www.w3.org/1999/xlink" version="1.1"><g transform="translate(406.1070861801799 282.8101789085844)"><path d="M115.6 -175.6C155.2 -154.5 196.3 -131.5 221.3 -95.5C246.4 -59.6 255.3 -10.8 252.2 38.8C249 88.4 233.7 138.8 203.7 180.5C173.8 222.1 129.2 255 85.7 247.4C42.3 239.9 0 191.9 -33.2 160.5C-66.5 129.1 -90.7 114.3 -113.7 94.7C-136.6 75 -158.4 50.4 -163.7 22.7C-168.9 -5 -157.7 -36 -145.5 -68C-133.3 -100.1 -120.2 -133.3 -95.8 -161.4C-71.4 -189.4 -35.7 -212.2 1.2 -214C38 -215.8 76.1 -196.7 115.6 -175.6" fill="#ffffff"></path></g></svg>