<svg id="logosandtypes_com" xmlns="http://www.w3.org/2000/svg" viewBox="0 0 150 150"><style>.st1{fill:#fff}.st2{fill:#fff}</style><path d="M0 0h150v150H0V0z" fill="none" id="Layer_3"/><g id="univille_universidade"><g id="univille_universidade_shapes2_1_"><path class="st1" d="M78.3 135.9V99.5c0-11.5 13.6-21.5 25.1-22 9.9-.4 19.7 0 29.6 0 .9 38.3-25.3 57.4-54.7 58.4zM71.4 135.9s.1-24.3 0-36.4C71.3 88 57.8 78 46.3 77.5c-9.9-.4-19.7 0-29.6 0-.8 38.3 25.4 57.4 54.7 58.4z"/></g><g id="univille_universidade_shapes1_1_"><path class="st2" d="M71.5 83.3c-6-6.9-12.9-11.3-21.4-12.8-2.6-.5-5.3-.7-8-.7-10.6-.1-32.1 0-32.1 0V18.2h29.8c11.2-.5 18.7 4.9 24.5 13.7 5.1 7.7 7.1 16.5 7.1 25.5.1 9 .1 25.9.1 25.9zM78.4 83.3c6-6.9 12.9-11.3 21.4-12.8 2.6-.5 5.3-.7 8-.7 10.6-.1 32.1 0 32.1 0V18.2h-29.8c-11.2-.5-18.7 4.8-24.5 13.6-5.1 7.7-6.8 16.5-7.1 25.5-.3 8.5-.1 26-.1 26z"/></g></g></svg>